# xmcd CD database file
#
# Track frame offsets:
#	150
#	13583
#	29649
#	49927
#	69139
#	84564
#	94078
#	108024
#	123304
#	136788
#	147096
#	160777
#	171511
#	184303
#	198414
#	208493
#	219132
#	232792
#	243100
#	255676
#	266673
#	278583
#	292327
#	312235
#	323971
#	339330
#
# Disc length: 4732 seconds
#
# Revision: 0
# Processed by: cddbd v1.5.1PL0 Copyright (c) Steve Scherf et al.
# Submitted via: CDex 1.51
#
DISCID=7a127a1a
DTITLE=somtuxe com br - SELEÇÃO
DYEAR=2004
DGENRE=Country
TTITLE0=Ataíde e Alexandre - Tá Nervoso...Vai Pescá
TTITLE1=Gino and Geno - Mete O Dedo
TTITLE2=César e Paulinho - Forró Bailão
TTITLE3=Ataide e Alexandre - Laço Aberto
TTITLE4=gino e geno-macaco velho
TTITLE5=cezar e paulinho - Forro em Goias (2)
TTITLE6=Felipe e falcão -  Meu Táxi É Um Cacete
TTITLE7=cezar e paulinho - morena do rodeio
TTITLE8=edson e hudson - Zoião
TTITLE9=Felipe e Falcão - Expresso Boiadeiro
TTITLE10=Cesar and Paulinho - Vai de Roda
TTITLE11=Gino e Geno - Mulher bonita de olhar esperto
TTITLE12=Felipe e Falcao - Vanerão da Mulher Feia
TTITLE13=César e Paulinho - Canoeiro 
TTITLE14=Ataide e Alexandre - Amor Carrapicho
TTITLE15=Cezar e Paulinho - Barbaridade
TTITLE16=ataíde e alexandre - tô que tô
TTITLE17=Felipe e Falcão - Expresso Boiadeiro
TTITLE18=Forró Sertanejo - Cezar e Paulinho - Beijo Pega Rapaz (1)
TTITLE19=Gino e Geno - Bate Coxa
TTITLE20=ataide e alexandre - Estrada do Amor
TTITLE21=06 - CEZAR E PAULINHO - NÓIS SÓ QUÉ VIRÁ OS ZÓIO
TTITLE22=Gino e Geno - Giripoca
TTITLE23=Felipe e Falcão - Folha de urtiga
TTITLE24=Cesar e Paulinho - Tchaca Tchaca na Butchaca
TTITLE25=GINO E GENO - AGORA É SÓ ALEGRIA
EXTD=YEAR: 2004
EXTT0=
EXTT1=
EXTT2=
EXTT3=
EXTT4=
EXTT5=
EXTT6=
EXTT7=
EXTT8=
EXTT9=
EXTT10=
EXTT11=
EXTT12=
EXTT13=
EXTT14=
EXTT15=
EXTT16=
EXTT17=
EXTT18=
EXTT19=
EXTT20=
EXTT21=
EXTT22=
EXTT23=
EXTT24=
EXTT25=
PLAYORDER=
